<?xml version="1.0" encoding="UTF-8" standalone="no"?>
		<svg xmlns:dc="http://purl.org/dc/elements/1.1/" xmlns:cc="http://creativecommons.org/ns#" xmlns:rdf="http://www.w3.org/1999/02/22-rdf-syntax-ns#" xmlns:svg="http://www.w3.org/2000/svg" xmlns="http://www.w3.org/2000/svg" xmlns:sodipodi="http://sodipodi.sourceforge.net/DTD/sodipodi-0.dtd" xmlns:inkscape="http://www.inkscape.org/namespaces/inkscape" width="3646.0629921259842" height="6420.472440944883" id="box" version="1.1" inkscape:version="0.48.3.1 r9886" sodipodi:docname="dessin.svg">
			<defs id="defs4"></defs>
			<sodipodi:namedview id="base" pagecolor="#ffffff" bordercolor="#666666" borderopacity="1.0" inkscape:pageopacity="0.0" inkscape:pageshadow="2" inkscape:document-units="mm" inkscape:current-layer="layer1" showgrid="false" fit-margin-top="0" fit-margin-left="0" fit-margin-right="0" fit-margin-bottom="0" units="mm" inkscape:window-maximized="1"></sodipodi:namedview>
			<metadata id="metadata7">
				<rdf:rdf>
					<cc:work rdf:about="">
						<dc:format>image/svg+xml</dc:format>
						<dc:type rdf:resource="http://purl.org/dc/dcmitype/StillImage"></dc:type>
						<dc:title></dc:title>
					</cc:work>
				</rdf:rdf>
			</metadata>
			<g inkscape:label="Calque 1" inkscape:groupmode="layer" id="layer1"><path style="fill:#ffffff;stroke:#ff0000" id="bottom" transform="translate(10.62992125984252,10.62992125984252)" d="m 0,0 258.33239595050617,0 0,10.62992125984252 257.8008998875141,0 0,-10.62992125984252 258.5095613048369,0 0,10.62992125984252 257.8008998875141,0 0,-10.62992125984252 258.5095613048369,0 0,10.62992125984252 257.8008998875141,0 0,-10.62992125984252 258.33239595050617,0 0,354.50787401574803 -10.62992125984252,0 0,353.9763779527559 10.62992125984252,0 0,354.50787401574803 -258.33239595050617,0 0,-10.62992125984252 -257.8008998875141,0 0,10.62992125984252 -258.5095613048369,0 0,-10.62992125984252 -257.8008998875141,0 0,10.62992125984252 -258.5095613048369,0 0,-10.62992125984252 -257.8008998875141,0 0,10.62992125984252 -258.33239595050617,0 0,-354.50787401574803 10.62992125984252,0 0,-353.9763779527559 -10.62992125984252,0 0,-354.50787401574803 z"></path><path style="fill:#ffffff;stroke:#ff0000" id="top" transform="translate(1828.3464566929135,10.62992125984252)" d="m 0,0 258.33239595050617,0 0,10.62992125984252 257.8008998875141,0 0,-10.62992125984252 258.5095613048369,0 0,10.62992125984252 257.8008998875141,0 0,-10.62992125984252 258.5095613048369,0 0,10.62992125984252 257.8008998875141,0 0,-10.62992125984252 258.33239595050617,0 0,354.50787401574803 -10.62992125984252,0 0,353.9763779527559 10.62992125984252,0 0,354.50787401574803 -258.33239595050617,0 0,-10.62992125984252 -257.8008998875141,0 0,10.62992125984252 -258.5095613048369,0 0,-10.62992125984252 -257.8008998875141,0 0,10.62992125984252 -258.5095613048369,0 0,-10.62992125984252 -257.8008998875141,0 0,10.62992125984252 -258.33239595050617,0 0,-354.50787401574803 10.62992125984252,0 0,-353.9763779527559 -10.62992125984252,0 0,-354.50787401574803 z"></path><path style="fill:#ffffff;stroke:#ff0000" id="font" transform="translate(1828.3464566929135,1084.2519685039372)" d="m 0,10.62992125984252 257.97806524184483,0 0,-10.62992125984252 258.5095613048369,0 0,10.62992125984252 257.8008998875141,0 0,-10.62992125984252 258.5095613048369,0 0,10.62992125984252 257.8008998875141,0 0,-10.62992125984252 258.5095613048369,0 0,10.62992125984252 257.97806524184483,0 0,293.0905511811024 -10.62992125984252,0 0,292.5590551181103 10.62992125984252,0 0,293.26771653543307 -10.62992125984252,0 0,292.5590551181103 10.62992125984252,0 0,293.26771653543307 -10.62992125984252,0 0,292.5590551181103 10.62992125984252,0 0,293.26771653543307 -10.62992125984252,0 0,292.5590551181103 10.62992125984252,0 0,293.0905511811024 -257.97806524184483,0 0,10.62992125984252 -258.5095613048369,0 0,-10.62992125984252 -257.8008998875141,0 0,10.62992125984252 -258.5095613048369,0 0,-10.62992125984252 -257.8008998875141,0 0,10.62992125984252 -258.5095613048369,0 0,-10.62992125984252 -257.97806524184483,0 0,-293.0905511811024 10.62992125984252,0 0,-292.5590551181103 -10.62992125984252,0 0,-293.26771653543307 10.62992125984252,0 0,-292.5590551181103 -10.62992125984252,0 0,-293.26771653543307 10.62992125984252,0 0,-292.5590551181103 -10.62992125984252,0 0,-293.26771653543307 10.62992125984252,0 0,-292.5590551181103 -10.62992125984252,0 0,-293.0905511811024 z"></path><path style="fill:#ffffff;stroke:#ff0000" id="back" transform="translate(10.62992125984252,1084.2519685039372)" d="m 0,10.62992125984252 257.97806524184483,0 0,-10.62992125984252 258.5095613048369,0 0,10.62992125984252 257.8008998875141,0 0,-10.62992125984252 258.5095613048369,0 0,10.62992125984252 257.8008998875141,0 0,-10.62992125984252 258.5095613048369,0 0,10.62992125984252 257.97806524184483,0 0,293.0905511811024 -10.62992125984252,0 0,292.5590551181103 10.62992125984252,0 0,293.26771653543307 -10.62992125984252,0 0,292.5590551181103 10.62992125984252,0 0,293.26771653543307 -10.62992125984252,0 0,292.5590551181103 10.62992125984252,0 0,293.26771653543307 -10.62992125984252,0 0,292.5590551181103 10.62992125984252,0 0,293.0905511811024 -257.97806524184483,0 0,10.62992125984252 -258.5095613048369,0 0,-10.62992125984252 -257.8008998875141,0 0,10.62992125984252 -258.5095613048369,0 0,-10.62992125984252 -257.8008998875141,0 0,10.62992125984252 -258.5095613048369,0 0,-10.62992125984252 -257.97806524184483,0 0,-293.0905511811024 10.62992125984252,0 0,-292.5590551181103 -10.62992125984252,0 0,-293.26771653543307 10.62992125984252,0 0,-292.5590551181103 -10.62992125984252,0 0,-293.26771653543307 10.62992125984252,0 0,-292.5590551181103 -10.62992125984252,0 0,-293.26771653543307 10.62992125984252,0 0,-292.5590551181103 -10.62992125984252,0 0,-293.0905511811024 z"></path><path style="fill:#ffffff;stroke:#ff0000" id="left_side" transform="translate(1084.2519685039372,3752.36220472441)" d="m 10.62992125984252,10.62992125984252 343.5236220472441,0 0,-10.62992125984252 354.68503937007875,0 0,10.62992125984252 343.5236220472441,0 0,292.736220472441 10.62992125984252,0 0,293.26771653543307 -10.62992125984252,0 0,292.5590551181103 10.62992125984252,0 0,293.26771653543307 -10.62992125984252,0 0,292.5590551181103 10.62992125984252,0 0,293.26771653543307 -10.62992125984252,0 0,292.5590551181103 10.62992125984252,0 0,293.26771653543307 -10.62992125984252,0 0,292.736220472441 -343.5236220472441,0 0,10.62992125984252 -354.68503937007875,0 0,-10.62992125984252 -343.5236220472441,0 0,-292.736220472441 -10.62992125984252,0 0,-293.26771653543307 10.62992125984252,0 0,-292.5590551181103 -10.62992125984252,0 0,-293.26771653543307 10.62992125984252,0 0,-292.5590551181103 -10.62992125984252,0 0,-293.26771653543307 10.62992125984252,0 0,-292.5590551181103 -10.62992125984252,0 0,-293.26771653543307 10.62992125984252,0 0,-292.736220472441 z"></path><path style="fill:#ffffff;stroke:#ff0000" id="right_side" transform="translate(10.62992125984252,3752.36220472441)" d="m 10.62992125984252,10.62992125984252 343.5236220472441,0 0,-10.62992125984252 354.68503937007875,0 0,10.62992125984252 343.5236220472441,0 0,292.736220472441 10.62992125984252,0 0,293.26771653543307 -10.62992125984252,0 0,292.5590551181103 10.62992125984252,0 0,293.26771653543307 -10.62992125984252,0 0,292.5590551181103 10.62992125984252,0 0,293.26771653543307 -10.62992125984252,0 0,292.5590551181103 10.62992125984252,0 0,293.26771653543307 -10.62992125984252,0 0,292.736220472441 -343.5236220472441,0 0,10.62992125984252 -354.68503937007875,0 0,-10.62992125984252 -343.5236220472441,0 0,-292.736220472441 -10.62992125984252,0 0,-293.26771653543307 10.62992125984252,0 0,-292.5590551181103 -10.62992125984252,0 0,-293.26771653543307 10.62992125984252,0 0,-292.5590551181103 -10.62992125984252,0 0,-293.26771653543307 10.62992125984252,0 0,-292.5590551181103 -10.62992125984252,0 0,-293.26771653543307 10.62992125984252,0 0,-292.736220472441 z"></path></g>
		</svg>
	